<svg xmlns="http://www.w3.org/2000/svg" id="phone" x="0" y="0" version="1.1" viewBox="0 0 29 29" xml:space="preserve"><path d="M14.5 26.994a12.465 12.465 0 0 1-8.839-3.655c-4.874-4.874-4.874-12.804 0-17.678 4.873-4.873 12.805-4.873 17.678 0 4.874 4.874 4.874 12.804 0 17.678a12.465 12.465 0 0 1-8.839 3.655zm0-22.989a10.47 10.47 0 0 0-7.425 3.07c-4.094 4.094-4.094 10.756 0 14.85s10.756 4.094 14.85 0 4.094-10.756 0-14.85a10.47 10.47 0 0 0-7.425-3.07zm3.898 17.116a3.643 3.643 0 0 1-1.806-.479 21.558 21.558 0 0 1-7.821-7.627l-.354-.59a3.602 3.602 0 0 1 .544-4.407l.703-.703a1.98 1.98 0 0 1 2.797 0l1.551 1.55c.625.627.758 1.601.324 2.37l-.452.804 3.077 3.077.803-.453a1.985 1.985 0 0 1 2.37.325l1.551 1.551a1.98 1.98 0 0 1 0 2.797l-.734.734a3.605 3.605 0 0 1-2.553 1.051zM11.063 8.744l-.688.688a1.605 1.605 0 0 0-.242 1.965l.354.59a19.491 19.491 0 0 0 7.027 6.879c.721.41 1.504.309 2.022-.21l.734-.734-1.551-1.52-1.007.586a1.656 1.656 0 0 1-1.979-.271l-3.451-3.45a1.661 1.661 0 0 1-.271-1.979l.582-1.033-1.53-1.511z"></path></svg>